<svg xmlns="http://www.w3.org/2000/svg" width="600" height="400" viewBox="0 0 600 400">
  <path d="M-20,30 Q80,10 180,35 Q280,60 380,30 Q480,5 620,28" stroke="rgba(255,255,255,0.045)" stroke-width="1" fill="none"/>
  <path d="M-20,65 Q100,45 200,68 Q300,90 400,62 Q500,38 620,60" stroke="rgba(255,255,255,0.03)" stroke-width="1" fill="none"/>
  <path d="M-20,95 Q70,75 170,100 Q270,122 370,95 Q470,70 620,92" stroke="rgba(255,255,255,0.055)" stroke-width="1.2" fill="none"/>
  <path d="M-20,128 Q90,108 190,132 Q290,155 390,126 Q490,100 620,125" stroke="rgba(255,255,255,0.035)" stroke-width="1" fill="none"/>
  <path d="M-20,158 Q110,138 210,162 Q310,185 410,155 Q510,128 620,155" stroke="rgba(255,255,255,0.06)" stroke-width="1" fill="none"/>
  <path d="M-20,190 Q60,168 160,192 Q260,215 360,188 Q460,162 620,188" stroke="rgba(255,255,255,0.03)" stroke-width="1.5" fill="none"/>
  <path d="M-20,222 Q80,200 180,225 Q280,248 380,220 Q480,195 620,220" stroke="rgba(255,255,255,0.05)" stroke-width="1" fill="none"/>
  <path d="M-20,252 Q100,230 200,255 Q300,278 400,250 Q500,225 620,250" stroke="rgba(255,255,255,0.04)" stroke-width="1" fill="none"/>
  <path d="M-20,282 Q75,260 175,285 Q275,308 375,280 Q475,255 620,280" stroke="rgba(255,255,255,0.065)" stroke-width="1.2" fill="none"/>
  <path d="M-20,315 Q90,292 190,318 Q290,340 390,312 Q490,286 620,312" stroke="rgba(255,255,255,0.03)" stroke-width="1" fill="none"/>
  <path d="M-20,345 Q110,322 210,348 Q310,370 410,342 Q510,316 620,342" stroke="rgba(255,255,255,0.05)" stroke-width="1" fill="none"/>
  <path d="M-20,375 Q70,352 170,378 Q270,400 370,372 Q470,346 620,372" stroke="rgba(255,255,255,0.035)" stroke-width="1" fill="none"/>
  <path d="M-20,50 Q150,20 300,52 Q450,82 620,48" stroke="rgba(255,255,255,0.025)" stroke-width="0.8" fill="none"/>
  <path d="M-20,140 Q150,112 300,142 Q450,170 620,138" stroke="rgba(255,255,255,0.025)" stroke-width="0.8" fill="none"/>
  <path d="M-20,235 Q150,205 300,237 Q450,267 620,233" stroke="rgba(255,255,255,0.025)" stroke-width="0.8" fill="none"/>
  <path d="M-20,328 Q150,298 300,330 Q450,360 620,326" stroke="rgba(255,255,255,0.025)" stroke-width="0.8" fill="none"/>
</svg>
